<?xml version="1.0" standalone="no"?>
<!DOCTYPE svg PUBLIC "-//W3C//DTD SVG 20010904//EN"
 "http://www.w3.org/TR/2001/REC-SVG-20010904/DTD/svg10.dtd">
<svg version="1.0" xmlns="http://www.w3.org/2000/svg"
 width="1980.000000pt" height="1114.000000pt" viewBox="0 0 1980.000000 1114.000000"
 preserveAspectRatio="xMidYMid meet">

<g transform="translate(0.000000,1114.000000) scale(0.100000,-0.100000)"
fill="#000000" stroke="none">
<path d="M5374 8191 l-711 -700 -6 -543 c-4 -299 -8 -751 -9 -1005 l-3 -463
703 -715 704 -715 111 -1 c62 0 512 -4 1002 -8 l890 -7 716 703 716 704 6 736
c4 405 7 858 7 1006 l0 269 -503 512 c-277 281 -593 602 -703 713 l-199 202
-1005 7 -1005 6 -711 -701z m1341 428 c2 -2 -3 -29 -11 -59 -19 -68 -11 -302
16 -485 6 -38 14 -99 20 -135 22 -155 44 -282 62 -370 11 -52 26 -126 34 -165
8 -38 19 -90 24 -115 5 -25 18 -79 30 -120 12 -41 25 -89 29 -106 16 -60 108
-239 154 -301 56 -73 131 -135 207 -170 44 -21 70 -26 133 -26 45 0 83 5 90
12 6 6 19 11 29 11 58 0 191 112 263 221 45 69 100 202 125 304 6 28 14 96 17
151 10 175 -36 278 -187 417 -45 42 -75 61 -116 73 -61 18 -96 13 -164 -21
-117 -59 -208 -66 -298 -22 -55 27 -71 15 -54 -42 13 -41 109 -182 146 -214
11 -10 34 -30 49 -44 39 -34 119 -73 165 -80 69 -11 72 -15 55 -75 -56 -195
-150 -338 -233 -354 -16 -4 -30 -10 -30 -15 0 -5 -4 -9 -9 -9 -10 0 -50 131
-65 210 -2 14 -16 75 -31 135 -34 145 -64 293 -75 380 -5 39 -18 140 -29 225
-45 352 -44 524 4 593 13 18 14 17 30 -14 30 -57 55 -162 54 -221 -2 -45 3
-65 24 -101 30 -51 154 -170 198 -189 16 -7 29 -16 29 -20 0 -5 6 -8 13 -8 6
0 24 -6 38 -13 17 -9 33 -11 49 -5 22 8 23 11 17 91 -4 46 -16 112 -28 148
-21 63 -97 202 -131 239 -10 11 -18 23 -18 28 0 13 -97 103 -153 141 -26 18
-85 52 -130 77 l-82 44 415 0 c228 0 421 -4 428 -9 9 -5 -30 -15 -104 -26 -93
-14 -158 -17 -316 -13 -109 3 -198 2 -198 -2 0 -17 231 -180 316 -223 49 -25
56 -26 188 -21 75 3 140 3 145 0 5 -3 -8 -42 -30 -85 -21 -44 -49 -106 -60
-138 -25 -65 -32 -73 -72 -73 -15 0 -30 -6 -33 -14 -20 -51 169 -250 299 -316
40 -20 96 -18 242 10 33 7 80 15 105 20 25 5 53 11 63 15 23 10 22 -4 -7 -56
-14 -24 -72 -136 -129 -249 -113 -221 -100 -205 -220 -260 -53 -25 -66 -51
-48 -101 16 -47 88 -135 130 -161 20 -12 39 -26 43 -32 3 -5 31 -11 61 -14 45
-3 65 1 121 27 37 17 72 31 77 31 5 0 9 5 9 10 0 6 6 10 13 10 8 0 58 23 113
51 54 28 158 81 229 117 72 36 132 68 135 71 3 3 34 21 70 40 36 18 102 58
147 87 44 30 85 54 89 54 4 0 16 -7 26 -17 15 -14 18 -32 18 -125 l0 -108 -39
19 c-21 11 -68 23 -104 27 -62 6 -97 -1 -182 -37 -11 -4 -37 -15 -59 -23 -93
-38 -257 -171 -335 -273 -46 -60 -98 -178 -123 -280 -48 -192 -11 -478 82
-635 80 -134 153 -149 355 -73 126 47 285 97 300 93 11 -2 3 -26 -36 -102
-110 -214 -247 -395 -382 -503 -12 -10 -83 -43 -92 -43 -1 0 -5 26 -7 58 -6
62 -52 169 -80 186 -13 8 -21 5 -37 -15 -28 -33 -36 -78 -35 -189 1 -146 46
-292 110 -360 l24 -26 -159 -158 -159 -159 23 84 c58 203 86 436 86 697 0 351
-43 580 -151 800 -97 200 -256 349 -407 383 -75 17 -164 22 -176 10 -6 -6 -20
-11 -32 -11 -11 -1 -38 -9 -60 -20 -22 -11 -46 -19 -52 -20 -7 0 -13 -4 -13
-9 0 -5 -12 -12 -27 -16 -36 -9 -126 -76 -181 -134 -75 -80 -140 -187 -169
-280 -23 -75 -27 -104 -27 -226 -1 -77 2 -162 6 -190 14 -90 29 -155 44 -183
8 -15 14 -33 14 -40 0 -7 4 -20 10 -30 5 -9 21 -42 35 -72 47 -105 90 -166
170 -243 58 -57 103 -83 117 -69 11 11 -1 38 -41 92 -39 52 -49 77 -69 170
-17 80 -21 225 -8 290 29 150 54 227 102 317 53 97 117 185 172 232 41 37 65
51 159 94 34 15 161 2 211 -23 24 -11 52 -35 62 -53 107 -176 125 -684 38
-1072 -11 -49 -23 -99 -28 -110 -4 -11 -21 -53 -37 -94 -15 -41 -33 -76 -38
-78 -14 -4 -31 79 -116 572 -11 66 -30 138 -41 161 -46 94 -164 194 -230 194
-32 0 -44 -28 -35 -83 19 -123 98 -495 141 -657 60 -232 80 -289 106 -305 18
-11 11 -34 -12 -37 -56 -8 -18 -99 78 -187 36 -33 81 -65 100 -71 19 -6 34
-13 34 -15 0 -2 -21 -24 -47 -49 l-48 -46 -247 0 -248 0 0 55 c0 29 -4 76 -10
102 -5 26 -12 59 -14 73 -30 155 -151 542 -223 714 -137 325 -288 554 -448
681 -27 22 -51 43 -53 48 -2 4 -10 7 -17 7 -7 0 -15 3 -17 8 -3 7 -119 65
-163 82 -65 25 -118 35 -180 34 -206 -4 -310 -145 -306 -416 1 -148 38 -278
140 -492 81 -171 154 -279 276 -406 55 -58 118 -126 140 -150 98 -111 270
-234 420 -302 l60 -27 -221 -1 -221 0 4 24 c7 33 -21 125 -68 225 -34 73 -53
98 -152 196 -94 93 -123 116 -170 134 -63 23 -149 28 -194 10 -32 -12 -124
-15 -171 -4 -17 3 -49 15 -71 26 -91 44 -72 4 37 -79 140 -107 244 -166 343
-197 54 -17 56 -19 65 -64 19 -96 -6 -133 -75 -112 -59 18 -294 244 -402 386
-48 63 -109 153 -109 160 0 2 -13 26 -29 53 -55 94 -85 197 -85 297 0 74 4 99
23 138 13 26 26 47 30 47 14 0 80 -236 81 -287 0 -45 53 -96 188 -184 122 -79
187 -108 204 -91 28 28 -30 247 -104 399 -84 171 -148 246 -301 356 -77 55
-207 117 -249 118 -15 0 -6 7 28 20 55 21 134 92 184 165 37 53 95 169 175
347 44 100 86 212 91 246 3 22 1 55 -6 75 -16 48 -126 163 -165 172 -16 4 -35
11 -42 16 -6 5 -22 6 -36 3 -28 -7 -67 -85 -107 -210 -13 -38 -26 -74 -30 -80
-4 -5 -21 -46 -38 -90 -57 -150 -122 -277 -170 -333 -46 -55 -123 -112 -149
-112 -51 0 -89 283 -72 543 9 144 30 307 48 377 5 19 21 79 35 133 40 158 113
362 166 466 42 82 49 91 49 64 1 -53 -38 -263 -65 -355 -27 -88 -27 -136 -1
-168 51 -62 157 -108 218 -95 37 8 63 63 94 199 39 174 51 316 37 453 -12 129
-30 188 -74 245 -15 20 -28 41 -28 46 0 5 108 113 240 241 l240 233 2 -94 c5
-313 -12 -1069 -25 -1073 -1 0 -19 -8 -40 -18 -21 -9 -44 -17 -52 -17 -8 0
-15 -4 -15 -10 0 -5 -9 -10 -20 -10 -11 0 -20 -4 -20 -10 0 -5 -6 -10 -14 -10
-8 0 -48 -33 -89 -72 -79 -76 -97 -115 -83 -173 9 -36 65 -59 123 -51 51 7
103 26 103 38 0 5 5 8 12 8 7 0 25 12 40 27 l28 27 0 -50 c-1 -72 -51 -445
-86 -634 -28 -152 -28 -166 -4 -205 24 -38 108 -85 152 -85 41 0 94 19 115 42
30 32 93 296 93 386 0 18 4 41 9 50 5 9 16 103 25 207 18 202 22 225 37 225
18 0 101 -57 168 -116 76 -67 137 -137 211 -242 60 -85 105 -134 173 -185 72
-55 142 -49 162 12 6 20 -61 337 -75 356 -4 6 -10 26 -14 45 -10 55 -120 384
-166 495 -22 53 -28 68 -60 155 -18 47 -39 101 -47 120 -21 48 -34 81 -43 105
-9 25 -23 57 -48 115 -10 25 -28 65 -38 90 -46 110 -248 507 -274 540 -16 20
-57 52 -91 70 l-62 33 42 40 43 40 255 -5 c140 -3 256 -7 258 -9z m1650 -391
c77 -79 158 -163 180 -186 l40 -44 -83 42 c-46 23 -98 44 -116 47 -18 3 -91 0
-162 -6 -71 -7 -154 -14 -184 -17 -30 -2 -64 -7 -75 -9 -44 -9 -44 6 -4 130
21 66 39 125 39 132 0 6 5 15 11 19 9 5 150 29 199 33 8 0 78 -63 155 -141z
m500 -510 c153 -157 185 -193 160 -183 -88 34 -144 28 -260 -25 -36 -17 -68
-30 -72 -30 -7 0 -184 -80 -256 -116 -71 -35 -82 -33 -57 15 25 49 75 177 101
256 49 146 47 144 87 151 20 3 64 14 97 24 33 11 67 19 75 19 9 1 65 -50 125
-111z m-2479 12 c19 -47 39 -94 44 -105 19 -44 60 -161 60 -173 0 -6 5 -12 10
-12 6 0 10 -8 10 -17 0 -15 17 -71 40 -128 18 -46 60 -174 60 -184 0 -9 -91
48 -110 69 -5 5 -62 33 -130 63 l-35 16 0 280 c0 155 4 280 8 278 5 -1 24 -41
43 -87z m-1441 -390 l-23 -75 -1 51 c-1 38 5 58 20 78 12 15 23 26 25 24 1 -2
-8 -37 -21 -78z m4244 -609 c10 -7 12 -20 7 -51 -7 -44 8 -120 24 -120 6 0 10
-68 10 -170 l0 -171 -37 30 c-75 59 -148 61 -438 16 -55 -9 -117 -19 -137 -22
-33 -5 -38 -3 -38 14 0 58 91 207 178 290 72 70 182 148 225 158 15 4 27 11
27 15 0 17 155 26 179 11z m-4077 -839 c82 -40 121 -52 150 -45 20 4 19 2 -7
-14 -43 -28 -95 -90 -118 -142 -30 -68 -27 -183 7 -280 14 -41 26 -77 26 -80
0 -3 -58 53 -130 124 l-130 130 0 237 0 237 69 -68 c44 -43 92 -79 133 -99z
m255 -28 c-3 -3 -12 -4 -19 -1 -8 3 -5 6 6 6 11 1 17 -2 13 -5z m1270 -71 c81
-86 195 -281 249 -423 64 -166 77 -204 109 -305 78 -252 102 -358 112 -491 7
-104 -11 -150 -63 -160 -19 -3 -40 -2 -47 3 -198 154 -234 188 -262 242 -10
19 -32 55 -50 81 -101 144 -238 442 -265 580 -58 288 11 504 164 519 5 1 29
-20 53 -46z m2547 -274 c-21 -21 -39 -37 -41 -35 -2 1 14 40 34 86 l38 84 3
-48 c3 -45 0 -52 -34 -87z m-2997 -1132 c48 -24 108 -50 133 -58 l45 -14 -99
-3 c-113 -3 -106 -7 -209 113 l-52 59 47 -27 c25 -15 86 -46 135 -70z"/>
</g>
</svg>
