<svg xmlns="http://www.w3.org/2000/svg" version="1.0" width="1980.000000pt" height="1114.000000pt" viewBox="0 0 1980.000000 1114.000000" preserveAspectRatio="xMidYMid meet">

<g transform="translate(0.000000,1114.000000) scale(0.100000,-0.100000)" fill="#e70000" stroke="none">
<path d="M6708 8583 c-21 -61 -15 -341 11 -508 6 -38 16 -99 21 -135 22 -151 43 -281 62 -370 11 -52 26 -126 34 -165 8 -38 19 -90 24 -115 5 -25 18 -79 30 -120 12 -41 25 -89 29 -106 16 -60 108 -239 154 -301 56 -73 131 -135 207 -170 44 -21 70 -26 133 -26 45 0 83 5 90 12 6 6 19 11 29 11 58 0 191 112 263 221 45 69 100 202 125 304 6 28 14 96 17 151 10 175 -36 278 -187 417 -45 42 -75 61 -116 73 -61 18 -96 13 -164 -21 -117 -59 -208 -66 -298 -22 -55 27 -71 15 -54 -42 13 -41 109 -182 146 -214 11 -10 34 -30 49 -44 39 -34 119 -73 165 -80 69 -11 72 -15 55 -75 -56 -195 -150 -338 -233 -354 -16 -4 -30 -10 -30 -15 0 -5 -4 -9 -9 -9 -10 0 -50 131 -65 210 -2 14 -16 75 -31 135 -34 145 -64 293 -75 380 -5 39 -18 140 -29 225 -45 352 -44 524 4 593 13 18 14 17 30 -14 30 -57 55 -162 54 -221 -2 -45 3 -65 24 -101 30 -51 154 -170 198 -189 16 -7 29 -16 29 -20 0 -5 6 -8 13 -8 6 0 24 -6 38 -13 17 -9 33 -11 49 -5 22 8 23 11 17 91 -4 46 -16 112 -28 148 -21 63 -97 202 -131 239 -10 11 -18 23 -18 28 0 16 -107 110 -176 155 -38 25 -97 59 -131 76 -60 30 -67 31 -187 31 l-124 0 -14 -37z" fill="#e70000"/>
<path d="M7765 8594 c-126 -22 -162 -25 -352 -21 -117 2 -213 0 -213 -3 0 -17 231 -180 316 -223 49 -25 56 -26 188 -21 75 3 140 3 145 0 5 -3 -8 -42 -30 -85 -21 -44 -49 -106 -60 -138 -25 -65 -32 -73 -72 -73 -15 0 -30 -6 -33 -14 -20 -51 169 -250 299 -316 40 -20 96 -18 242 10 33 7 80 15 105 20 25 5 53 11 63 15 23 10 22 -4 -7 -56 -14 -24 -72 -136 -129 -249 -113 -221 -100 -205 -220 -260 -53 -25 -66 -51 -48 -101 16 -47 88 -135 130 -161 20 -12 39 -26 43 -32 3 -5 31 -11 61 -14 45 -3 65 1 121 27 37 17 72 31 77 31 5 0 9 5 9 10 0 6 6 10 13 10 8 0 58 23 113 51 54 28 158 81 229 117 72 36 132 68 135 71 3 3 31 19 62 35 31 16 100 57 152 91 l95 62 -67 70 c-119 125 -201 139 -369 62 -35 -16 -66 -29 -70 -29 -7 0 -184 -80 -256 -116 -71 -35 -82 -33 -57 15 25 49 75 177 101 256 47 142 48 143 82 150 18 3 67 16 110 27 l78 22 -81 81 c-63 64 -100 91 -166 124 -47 23 -100 45 -118 48 -18 3 -91 0 -162 -6 -71 -7 -154 -14 -184 -17 -30 -2 -64 -7 -75 -9 -44 -9 -44 6 -4 130 21 66 39 126 39 133 0 17 33 28 114 37 120 12 121 7 -12 138 -90 88 -125 117 -145 117 -14 0 -31 2 -39 4 -7 2 -76 -7 -153 -20z" fill="#e70000"/>
<path d="M6072 8507 l-41 -42 2 -270 c2 -266 -5 -575 -18 -790 l-7 -110 -41 -18 c-23 -9 -48 -17 -55 -17 -6 0 -12 -4 -12 -10 0 -5 -9 -10 -20 -10 -11 0 -20 -4 -20 -10 0 -5 -6 -10 -14 -10 -8 0 -48 -33 -89 -72 -79 -76 -97 -115 -83 -173 9 -36 65 -59 123 -51 51 7 103 26 103 38 0 5 5 8 12 8 7 0 25 12 40 27 l28 27 0 -50 c-1 -72 -51 -445 -86 -634 -28 -152 -28 -166 -4 -205 24 -38 108 -85 152 -85 41 0 94 19 115 42 30 32 93 296 93 386 0 18 4 41 9 50 5 9 16 103 25 207 18 202 22 225 37 225 18 0 101 -57 168 -116 76 -67 137 -137 211 -242 60 -85 105 -134 173 -185 72 -55 142 -49 162 12 6 20 -61 337 -75 356 -4 6 -10 26 -14 45 -10 55 -120 384 -166 495 -22 53 -28 68 -60 155 -18 47 -39 101 -47 120 -15 36 -26 63 -42 103 -12 30 -25 64 -49 117 -10 25 -28 65 -38 90 -46 110 -248 507 -274 540 -23 29 -131 100 -152 100 -2 0 -23 -19 -46 -43z m314 -777 c19 -47 39 -94 44 -105 19 -44 60 -161 60 -173 0 -6 5 -12 10 -12 6 0 10 -8 10 -17 0 -15 17 -71 40 -128 18 -46 60 -174 60 -184 0 -9 -91 48 -110 69 -5 5 -62 33 -130 63 l-35 16 0 280 c0 155 4 280 8 278 5 -1 24 -41 43 -87z" fill="#e70000"/>
<path d="M5253 7701 l-281 -278 -23 -69 c-22 -67 -23 -85 -31 -672 l-9 -603 22 -35 c57 -93 260 -213 331 -197 20 4 19 2 -7 -14 -43 -28 -95 -90 -118 -142 -47 -106 -10 -309 75 -409 22 -26 207 -215 411 -420 370 -371 373 -373 477 -430 195 -107 245 -122 397 -122 98 0 115 2 120 17 10 25 -22 134 -67 230 -35 76 -54 99 -153 198 -94 93 -123 116 -170 134 -63 23 -149 28 -194 10 -32 -12 -124 -15 -171 -4 -17 3 -49 15 -71 26 -91 44 -72 4 37 -79 140 -107 244 -166 343 -197 54 -17 56 -19 65 -64 19 -96 -6 -133 -75 -112 -59 18 -294 244 -402 386 -48 63 -109 153 -109 160 0 2 -13 26 -29 53 -55 94 -85 197 -85 297 0 74 4 99 23 138 13 26 26 47 30 47 14 0 80 -236 81 -287 0 -45 53 -96 188 -184 122 -79 187 -108 204 -91 28 28 -30 247 -104 399 -84 171 -148 246 -301 356 -77 55 -207 117 -249 118 -15 0 -6 7 28 20 55 21 134 92 184 165 37 53 95 169 175 347 44 100 86 212 91 246 3 22 1 55 -6 75 -16 48 -126 163 -165 172 -16 4 -35 11 -42 16 -6 5 -22 6 -36 3 -28 -7 -67 -85 -107 -210 -13 -38 -26 -74 -30 -80 -4 -5 -21 -46 -38 -90 -57 -150 -122 -277 -170 -333 -46 -55 -123 -112 -149 -112 -51 0 -89 283 -72 543 9 144 30 307 48 377 5 19 21 79 35 133 40 158 113 362 166 466 42 82 49 91 49 64 1 -53 -38 -263 -65 -355 -27 -88 -27 -136 -1 -168 30 -37 99 -80 143 -90 71 -16 99 -6 124 44 28 58 66 233 81 371 15 135 1 320 -29 399 -19 48 -66 116 -80 116 -4 -1 -134 -126 -289 -279z m114 -1837 c-3 -3 -12 -4 -19 -1 -8 3 -5 6 6 6 11 1 17 -2 13 -5z" fill="#e70000"/>
<path d="M8970 7151 c-25 -10 -54 -21 -65 -26 -11 -4 -35 -14 -54 -21 -89 -36 -254 -172 -330 -271 -46 -60 -98 -178 -123 -280 -48 -192 -11 -478 82 -635 80 -134 153 -149 355 -73 126 47 285 97 300 93 11 -2 3 -26 -36 -102 -110 -214 -247 -395 -382 -503 -12 -10 -83 -43 -92 -43 -1 0 -5 26 -7 58 -6 62 -52 169 -80 186 -21 13 -54 -24 -65 -74 -14 -60 -7 -221 12 -295 27 -107 87 -215 119 -215 7 0 129 118 272 263 l261 262 44 100 44 100 3 268 3 269 -35 32 c-66 63 -147 67 -441 21 -55 -9 -117 -19 -137 -22 -33 -5 -38 -3 -38 14 0 58 91 207 178 290 68 66 179 145 222 158 14 4 28 12 31 17 8 12 130 22 164 14 26 -7 27 -9 21 -53 -6 -46 8 -123 23 -123 9 0 21 249 21 431 0 123 -2 129 -57 158 -40 20 -163 22 -213 2z" fill="#e70000"/>
<path d="M7655 6601 c-3 -6 -16 -11 -28 -11 -12 -1 -40 -9 -62 -20 -22 -11 -46 -19 -52 -20 -7 0 -13 -4 -13 -9 0 -5 -12 -12 -27 -16 -36 -9 -126 -76 -181 -134 -75 -80 -140 -187 -169 -280 -23 -75 -27 -104 -27 -226 -1 -77 2 -162 6 -190 14 -90 29 -155 44 -183 8 -15 14 -33 14 -40 0 -7 4 -20 10 -30 5 -9 21 -42 35 -72 47 -105 90 -166 170 -243 58 -57 103 -83 117 -69 11 11 -1 38 -41 92 -39 52 -49 77 -69 170 -17 80 -21 225 -8 290 29 150 54 227 102 317 53 97 117 185 172 232 41 37 65 51 159 94 34 15 161 2 211 -23 24 -11 52 -35 62 -53 107 -176 125 -684 38 -1072 -11 -49 -23 -99 -28 -110 -4 -11 -21 -53 -37 -94 -15 -41 -33 -76 -38 -78 -14 -4 -31 79 -116 572 -11 66 -30 138 -41 161 -46 94 -164 194 -230 194 -32 0 -44 -28 -35 -83 19 -123 98 -495 141 -657 60 -232 80 -289 106 -305 18 -11 11 -34 -12 -37 -55 -8 -19 -97 74 -184 65 -60 118 -89 146 -80 10 3 66 55 125 114 l109 109 23 84 c58 203 86 436 86 697 0 351 -43 580 -151 800 -97 200 -256 349 -407 383 -74 17 -170 22 -178 10z" fill="#e70000"/>
<path d="M6245 6095 c-27 -8 -53 -14 -56 -15 -4 0 -28 -19 -54 -42 -84 -75 -118 -178 -116 -350 1 -148 38 -278 140 -492 81 -171 154 -279 276 -406 55 -58 118 -126 140 -150 98 -111 269 -234 425 -305 64 -29 68 -30 258 -33 l192 -3 0 55 c0 30 -4 77 -10 103 -5 26 -12 59 -14 73 -30 155 -151 542 -223 714 -137 325 -288 554 -448 681 -27 22 -51 43 -53 48 -2 4 -10 7 -17 7 -7 0 -15 3 -17 8 -3 7 -122 67 -163 82 -68 24 -96 31 -150 35 -36 3 -80 -1 -110 -10z m392 -302 c81 -86 195 -281 249 -423 64 -166 77 -204 109 -305 78 -252 102 -358 112 -491 7 -104 -11 -150 -63 -160 -19 -3 -40 -2 -47 3 -198 154 -234 188 -262 242 -10 19 -32 55 -50 81 -101 144 -238 442 -265 580 -58 288 11 504 164 519 5 1 29 -20 53 -46z" fill="#e70000"/>
</g>
</svg>